<?xml version="1.0" encoding="UTF-8"?>
<svg xmlns="http://www.w3.org/2000/svg" viewBox="0 0 102.50027 57.574417"><path fill="#efce4a" d="M45.984 57.574H1.554c-1.023 0-1.766-.97-1.5-1.958L10.147 27.95c.183-.678.797-1.148 1.5-1.148h44.43c1.022 0 1.5.977 1.5 1.958L47.482 56.427c-.182.677-.797 1.147-1.5 1.147z"/><path fill="#ebba16" d="M49.9 17.868h-2.252v8.934h3.97v-7.215c0-.95-.77-1.72-1.72-1.72zM3.97 10.92H1.72c-.95 0-1.72.77-1.72 1.72v42.413c.07.002.137.006.204.01L3.97 44.79z"/><path fill="#f4efdc" d="M10.146 27.95c.183-.678.797-1.148 1.5-1.148h36.002V0H9.928v28.55z"/><path fill="#cec9ae" d="M16.875 15.883H40.7c.547 0 .992-.444.992-.993 0-.55-.445-.993-.993-.993H16.874c-.548 0-.992.444-.992.993 0 .55.444.993.992.993zM16.875 8.934h9.927c.548 0 .993-.444.993-.993 0-.548-.445-.99-.993-.99h-9.927c-.548 0-.992.442-.992.99 0 .55.444.994.992.994zM40.7 20.846H16.874c-.548 0-.992.444-.992.993 0 .548.444.99.992.99H40.7c.547 0 .992-.442.992-.99 0-.55-.445-.994-.993-.994zM6.95 36.715l2.977-8.165V1.985H6.95"/><path fill="#d1bf86" d="M3.97 44.88l2.98-8.165V3.97H3.97"/><g fill="#ffd24d"><path d="M68.19 32.15c-1.898-1.902-1.896-4.994.006-6.892 1.9-1.9 4.993-1.896 6.89.005 1.9 1.902 1.897 4.993-.004 6.892-1.902 1.898-4.993 1.896-6.892-.006zM80.817 41.348c-.95-.952-.95-2.495.003-3.446 5.07-5.062 5.077-13.306.015-18.377-.95-.952-.95-2.495.003-3.445.952-.95 2.495-.95 3.445.003 3.372 3.377 5.227 7.866 5.223 12.638-.004 4.774-1.866 9.26-5.244 12.63-.952.95-2.495.95-3.445-.002z"/><path d="M89.998 50.544c-.95-.952-.95-2.495.002-3.446 10.142-10.124 10.155-26.612.03-36.753-.95-.953-.95-2.495.004-3.446.952-.952 2.495-.95 3.445.002 2.942 2.947 5.22 6.385 6.77 10.216 1.496 3.7 2.254 7.607 2.25 11.614-.003 4.007-.767 7.913-2.27 11.61-1.555 3.828-3.84 7.262-6.787 10.205-.952.95-2.495.95-3.445-.003z"/></g></svg>